<svg width="225" height="54" viewBox="0 0 225 54" fill="none" xmlns="http://www.w3.org/2000/svg">
<path fill-rule="evenodd" clip-rule="evenodd" d="M40.1723 53.5261C40.4432 52.2759 41.1109 51.1758 41.6555 50.0644C45.3231 42.5766 49.3208 35.0404 53.1027 27.5591C56.3719 21.0907 59.5803 14.6143 62.8538 8.12179C63.9329 5.98449 64.8295 3.72298 66.2461 1.82764C73.6159 1.78248 81.607 1.57117 89 1.90507C88.8247 3.12292 88.1367 4.22303 87.5863 5.28926C87.0301 6.36839 86.4927 7.44753 85.8902 8.43633C80.3932 19.9084 74.6008 31.1385 68.9315 42.5105C67.9929 44.3913 67.0239 46.2479 66.0346 48.0965C65.0555 49.9289 64.2487 51.9065 63.0667 53.6051C57.6871 53.8842 51.0821 53.7616 45.3303 53.7632C43.5429 53.7632 41.7903 53.9487 40.1723 53.5261Z" fill="white"/>
<path fill-rule="evenodd" clip-rule="evenodd" d="M15.1778 53.8016C15.3212 52.5369 16.0614 51.5013 16.5915 50.4174C21.3671 40.6487 26.2832 30.6704 31.2891 20.9872C33.5038 16.7045 35.7228 12.4251 37.9317 8.08113C39.0137 5.95674 40.2189 3.88719 41.6065 2.0225C48.6938 2.05476 56.5474 1.90958 63.5826 2.258C63.6086 3.08066 63.0785 3.72104 62.7352 4.38078C61.7126 6.3471 60.7219 8.42794 59.6963 10.441C58.3362 13.109 56.7864 15.7222 55.5972 18.4676C55.2452 19.2806 54.9975 20.0742 54.6079 20.8291C52.005 25.8715 49.4528 31.2736 46.8354 36.4096C44.5845 40.8278 42.3959 45.2072 40.1218 49.7092C39.4063 51.1271 38.7472 52.695 37.7188 53.879C30.4982 54.008 22.5693 54.0984 15.1778 53.8016Z" fill="white"/>
<path fill-rule="evenodd" clip-rule="evenodd" d="M13.1434 53.5664C12.5683 53.547 12.2685 51.5953 12.0121 50.5774C8.51841 36.6148 5.05948 22.6522 1.4137 8.71381C0.851698 6.56683 0.233207 4.38276 4.53762e-06 2.18255C3.50673 1.87123 7.3524 2.02286 11.2343 2.02447C15.0901 2.02609 19.0038 1.95834 22.6815 2.10351C23.3927 3.8811 23.594 5.80386 24.0242 7.69113C25.083 12.3448 25.9796 17.0694 27.0631 22.0134C27.276 22.9829 27.7525 24.1007 27.699 24.846C27.6236 25.917 26.4909 27.3301 25.9333 28.4657C24.1502 32.0854 22.16 35.6583 20.5624 39.1683C19.4818 41.5427 18.239 43.9623 17.0296 46.3302C15.7607 48.8111 14.5049 51.3888 13.1434 53.5664Z" fill="white"/>
<path d="M98.8699 4.436H102.25L106.904 19.126H106.956L111.714 4.436H115.016L108.672 23H105.058L98.8699 4.436ZM115.31 4.436H118.56V23H115.31V4.436ZM133.519 10.338C133.38 9.80067 133.189 9.30667 132.947 8.856C132.704 8.40533 132.392 8.01533 132.011 7.686C131.629 7.35667 131.179 7.10533 130.659 6.932C130.156 6.74133 129.567 6.646 128.891 6.646C127.903 6.646 127.045 6.84533 126.317 7.244C125.606 7.64267 125.025 8.18 124.575 8.856C124.124 9.51467 123.786 10.2687 123.561 11.118C123.353 11.9673 123.249 12.834 123.249 13.718C123.249 14.602 123.353 15.4687 123.561 16.318C123.786 17.1673 124.124 17.93 124.575 18.606C125.025 19.2647 125.606 19.7933 126.317 20.192C127.045 20.5907 127.903 20.79 128.891 20.79C129.619 20.79 130.26 20.6687 130.815 20.426C131.369 20.166 131.846 19.8193 132.245 19.386C132.643 18.9353 132.955 18.4153 133.181 17.826C133.406 17.2367 133.553 16.604 133.623 15.928H136.795C136.725 17.0373 136.483 18.0513 136.067 18.97C135.668 19.8887 135.122 20.686 134.429 21.362C133.735 22.0207 132.921 22.532 131.985 22.896C131.049 23.26 130.017 23.442 128.891 23.442C127.504 23.442 126.256 23.1907 125.147 22.688C124.055 22.168 123.127 21.466 122.365 20.582C121.602 19.698 121.013 18.6667 120.597 17.488C120.198 16.3093 119.999 15.0527 119.999 13.718C119.999 12.4007 120.198 11.1527 120.597 9.974C121.013 8.79533 121.602 7.764 122.365 6.88C123.127 5.996 124.055 5.294 125.147 4.774C126.256 4.254 127.504 3.994 128.891 3.994C129.931 3.994 130.91 4.14133 131.829 4.436C132.747 4.71333 133.553 5.12933 134.247 5.684C134.957 6.22133 135.529 6.88 135.963 7.66C136.396 8.44 136.665 9.33267 136.769 10.338H133.519ZM137.982 4.436H141.232V15.252C141.232 15.876 141.258 16.5087 141.31 17.15C141.38 17.7913 141.553 18.372 141.83 18.892C142.125 19.3947 142.558 19.8107 143.13 20.14C143.72 20.4693 144.543 20.634 145.6 20.634C146.658 20.634 147.472 20.4693 148.044 20.14C148.634 19.8107 149.067 19.3947 149.344 18.892C149.639 18.372 149.812 17.7913 149.864 17.15C149.934 16.5087 149.968 15.876 149.968 15.252V4.436H153.218V16.318C153.218 17.514 153.036 18.554 152.672 19.438C152.308 20.322 151.788 21.0673 151.112 21.674C150.454 22.2633 149.656 22.7053 148.72 23C147.784 23.2947 146.744 23.442 145.6 23.442C144.456 23.442 143.416 23.2947 142.48 23C141.544 22.7053 140.738 22.2633 140.062 21.674C139.404 21.0673 138.892 20.322 138.528 19.438C138.164 18.554 137.982 17.514 137.982 16.318V4.436ZM157.526 16.812C157.526 17.5227 157.647 18.1293 157.89 18.632C158.133 19.1347 158.471 19.5507 158.904 19.88C159.337 20.192 159.831 20.426 160.386 20.582C160.958 20.7207 161.573 20.79 162.232 20.79C162.943 20.79 163.549 20.712 164.052 20.556C164.555 20.3827 164.962 20.166 165.274 19.906C165.586 19.646 165.811 19.3513 165.95 19.022C166.089 18.6753 166.158 18.3287 166.158 17.982C166.158 17.2713 165.993 16.7513 165.664 16.422C165.352 16.0753 165.005 15.8327 164.624 15.694C163.965 15.4513 163.194 15.226 162.31 15.018C161.443 14.7927 160.369 14.5067 159.086 14.16C158.289 13.952 157.621 13.6833 157.084 13.354C156.564 13.0073 156.148 12.626 155.836 12.21C155.524 11.794 155.299 11.352 155.16 10.884C155.039 10.416 154.978 9.93933 154.978 9.454C154.978 8.518 155.169 7.712 155.55 7.036C155.949 6.34267 156.469 5.77067 157.11 5.32C157.751 4.86933 158.479 4.54 159.294 4.332C160.109 4.10667 160.932 3.994 161.764 3.994C162.735 3.994 163.645 4.124 164.494 4.384C165.361 4.62667 166.115 4.99933 166.756 5.502C167.415 6.00467 167.935 6.62867 168.316 7.374C168.697 8.102 168.888 8.95133 168.888 9.922H165.638C165.551 8.726 165.144 7.88533 164.416 7.4C163.688 6.89733 162.761 6.646 161.634 6.646C161.253 6.646 160.863 6.68933 160.464 6.776C160.065 6.84533 159.701 6.97533 159.372 7.166C159.043 7.33933 158.765 7.582 158.54 7.894C158.332 8.206 158.228 8.596 158.228 9.064C158.228 9.72267 158.427 10.2427 158.826 10.624C159.242 10.988 159.779 11.2653 160.438 11.456C160.507 11.4733 160.776 11.5513 161.244 11.69C161.729 11.8113 162.267 11.95 162.856 12.106C163.445 12.262 164.017 12.418 164.572 12.574C165.144 12.7127 165.551 12.8167 165.794 12.886C166.401 13.0767 166.929 13.3367 167.38 13.666C167.831 13.9953 168.203 14.3767 168.498 14.81C168.81 15.226 169.035 15.6767 169.174 16.162C169.33 16.6473 169.408 17.1327 169.408 17.618C169.408 18.658 169.191 19.5507 168.758 20.296C168.342 21.024 167.787 21.622 167.094 22.09C166.401 22.558 165.612 22.896 164.728 23.104C163.844 23.3293 162.943 23.442 162.024 23.442C160.967 23.442 159.97 23.312 159.034 23.052C158.098 22.792 157.283 22.3933 156.59 21.856C155.897 21.3187 155.342 20.634 154.926 19.802C154.51 18.9527 154.293 17.956 154.276 16.812H157.526ZM98.8699 31.436H102.25L106.904 46.126H106.956L111.714 31.436H115.016L108.672 50H105.058L98.8699 31.436ZM115.31 31.436H128.674V34.244H118.56V39.106H127.92V41.758H118.56V47.192H128.856V50H115.31V31.436ZM129.997 31.436H133.429L141.905 45.112H141.957V31.436H145.051V50H141.619L133.169 36.35H133.091V50H129.997V31.436ZM145.563 31.436H160.591V34.244H154.689V50H151.439V34.244H145.563V31.436ZM160.975 31.436H164.225V42.252C164.225 42.876 164.251 43.5087 164.303 44.15C164.372 44.7913 164.546 45.372 164.823 45.892C165.118 46.3947 165.551 46.8107 166.123 47.14C166.712 47.4693 167.536 47.634 168.593 47.634C169.65 47.634 170.465 47.4693 171.037 47.14C171.626 46.8107 172.06 46.3947 172.337 45.892C172.632 45.372 172.805 44.7913 172.857 44.15C172.926 43.5087 172.961 42.876 172.961 42.252V31.436H176.211V43.318C176.211 44.514 176.029 45.554 175.665 46.438C175.301 47.322 174.781 48.0673 174.105 48.674C173.446 49.2633 172.649 49.7053 171.713 50C170.777 50.2947 169.737 50.442 168.593 50.442C167.449 50.442 166.409 50.2947 165.473 50C164.537 49.7053 163.731 49.2633 163.055 48.674C162.396 48.0673 161.885 47.322 161.521 46.438C161.157 45.554 160.975 44.514 160.975 43.318V31.436ZM178.387 31.436H187.253C189.298 31.436 190.832 31.878 191.855 32.762C192.877 33.646 193.389 34.8767 193.389 36.454C193.389 37.338 193.259 38.0747 192.999 38.664C192.739 39.236 192.435 39.704 192.089 40.068C191.742 40.4147 191.395 40.666 191.049 40.822C190.719 40.978 190.477 41.082 190.321 41.134V41.186C190.598 41.2207 190.893 41.3073 191.205 41.446C191.534 41.5847 191.837 41.81 192.115 42.122C192.392 42.4167 192.617 42.8067 192.791 43.292C192.981 43.7773 193.077 44.384 193.077 45.112C193.077 46.204 193.155 47.2007 193.311 48.102C193.484 48.986 193.744 49.6187 194.091 50H190.607C190.364 49.6013 190.217 49.1593 190.165 48.674C190.13 48.1887 190.113 47.7207 190.113 47.27C190.113 46.4207 190.061 45.6927 189.957 45.086C189.853 44.462 189.662 43.9507 189.385 43.552C189.107 43.136 188.726 42.8327 188.241 42.642C187.773 42.4513 187.166 42.356 186.421 42.356H181.637V50H178.387V31.436ZM181.637 39.886H186.967C188.007 39.886 188.795 39.6433 189.333 39.158C189.87 38.6553 190.139 37.91 190.139 36.922C190.139 36.3327 190.052 35.856 189.879 35.492C189.705 35.1107 189.463 34.816 189.151 34.608C188.856 34.4 188.509 34.2613 188.111 34.192C187.729 34.1227 187.331 34.088 186.915 34.088H181.637V39.886ZM195.133 31.436H208.497V34.244H198.383V39.106H207.743V41.758H198.383V47.192H208.679V50H195.133V31.436ZM212.082 43.812C212.082 44.5227 212.204 45.1293 212.446 45.632C212.689 46.1347 213.027 46.5507 213.46 46.88C213.894 47.192 214.388 47.426 214.942 47.582C215.514 47.7207 216.13 47.79 216.788 47.79C217.499 47.79 218.106 47.712 218.608 47.556C219.111 47.3827 219.518 47.166 219.83 46.906C220.142 46.646 220.368 46.3513 220.506 46.022C220.645 45.6753 220.714 45.3287 220.714 44.982C220.714 44.2713 220.55 43.7513 220.22 43.422C219.908 43.0753 219.562 42.8327 219.18 42.694C218.522 42.4513 217.75 42.226 216.866 42.018C216 41.7927 214.925 41.5067 213.642 41.16C212.845 40.952 212.178 40.6833 211.64 40.354C211.12 40.0073 210.704 39.626 210.392 39.21C210.08 38.794 209.855 38.352 209.716 37.884C209.595 37.416 209.534 36.9393 209.534 36.454C209.534 35.518 209.725 34.712 210.106 34.036C210.505 33.3427 211.025 32.7707 211.666 32.32C212.308 31.8693 213.036 31.54 213.85 31.332C214.665 31.1067 215.488 30.994 216.32 30.994C217.291 30.994 218.201 31.124 219.05 31.384C219.917 31.6267 220.671 31.9993 221.312 32.502C221.971 33.0047 222.491 33.6287 222.872 34.374C223.254 35.102 223.444 35.9513 223.444 36.922H220.194C220.108 35.726 219.7 34.8853 218.972 34.4C218.244 33.8973 217.317 33.646 216.19 33.646C215.809 33.646 215.419 33.6893 215.02 33.776C214.622 33.8453 214.258 33.9753 213.928 34.166C213.599 34.3393 213.322 34.582 213.096 34.894C212.888 35.206 212.784 35.596 212.784 36.064C212.784 36.7227 212.984 37.2427 213.382 37.624C213.798 37.988 214.336 38.2653 214.994 38.456C215.064 38.4733 215.332 38.5513 215.8 38.69C216.286 38.8113 216.823 38.95 217.412 39.106C218.002 39.262 218.574 39.418 219.128 39.574C219.7 39.7127 220.108 39.8167 220.35 39.886C220.957 40.0767 221.486 40.3367 221.936 40.666C222.387 40.9953 222.76 41.3767 223.054 41.81C223.366 42.226 223.592 42.6767 223.73 43.162C223.886 43.6473 223.964 44.1327 223.964 44.618C223.964 45.658 223.748 46.5507 223.314 47.296C222.898 48.024 222.344 48.622 221.65 49.09C220.957 49.558 220.168 49.896 219.284 50.104C218.4 50.3293 217.499 50.442 216.58 50.442C215.523 50.442 214.526 50.312 213.59 50.052C212.654 49.792 211.84 49.3933 211.146 48.856C210.453 48.3187 209.898 47.634 209.482 46.802C209.066 45.9527 208.85 44.956 208.832 43.812H212.082Z" fill="white"/>
</svg>
